<?xml version="1.0" standalone="no"?>
<!DOCTYPE svg PUBLIC "-//W3C//DTD SVG 20010904//EN"
 "http://www.w3.org/TR/2001/REC-SVG-20010904/DTD/svg10.dtd">
<svg version="1.0" xmlns="http://www.w3.org/2000/svg"
 width="681.000000pt" height="681.000000pt" viewBox="0 0 681.000000 681.000000"
 preserveAspectRatio="xMidYMid meet">
<metadata>
Created by potrace 1.14, written by Peter Selinger 2001-2017
</metadata>
<g transform="translate(0.000000,681.000000) scale(0.100000,-0.100000)"
fill="#000000" stroke="none">
<path d="M820 5132 c-32 -10 -58 -44 -54 -70 8 -41 19 -54 87 -107 94 -73 96
-80 25 -132 -95 -70 -169 -151 -266 -290 -31 -45 -98 -140 -148 -210 -50 -70
-157 -225 -236 -343 -125 -187 -149 -228 -177 -311 -42 -127 -46 -177 -45
-499 2 -310 13 -401 64 -524 46 -110 147 -239 245 -313 38 -28 199 -112 222
-116 10 -1 23 -5 28 -9 9 -5 39 -10 160 -24 16 -2 31 -7 33 -12 11 -35 85
-166 108 -193 130 -151 260 -233 439 -273 323 -72 673 109 810 419 14 30 30
55 37 56 7 0 135 2 283 3 252 2 275 3 345 25 168 53 299 179 363 351 27 74 29
96 34 308 l5 203 74 36 c41 20 88 50 104 67 102 106 148 172 153 222 2 16 10
40 17 54 7 13 15 73 18 137 l5 113 34 17 c38 18 89 75 95 107 7 35 -11 100
-35 127 -53 62 -38 60 -616 61 -515 0 -528 0 -568 -20 -70 -36 -101 -116 -74
-187 13 -30 67 -84 87 -85 25 0 33 -30 35 -120 3 -162 48 -270 159 -380 65
-66 124 -106 200 -135 l55 -21 0 -215 0 -214 -28 -47 c-50 -86 -125 -145 -207
-164 -53 -12 -510 -11 -511 1 0 5 -2 18 -4 27 -2 10 -6 42 -9 70 -5 53 -38
165 -59 203 -6 11 -12 25 -13 32 -5 27 -81 120 -154 189 -113 106 -267 177
-411 190 -41 3 -76 7 -79 9 -3 1 -44 -4 -92 -11 -164 -27 -301 -94 -414 -204
-130 -126 -203 -271 -220 -435 -7 -74 -6 -73 -61 -64 -134 22 -244 99 -340
239 -26 38 -58 113 -55 130 0 3 -5 11 -11 19 -8 9 -12 115 -13 347 -2 448 -27
382 341 909 27 39 78 111 115 160 90 123 160 229 160 243 0 18 109 124 180
174 78 55 210 112 300 128 47 9 313 12 975 12 933 0 1045 -2 1200 -28 102 -17
317 -69 343 -84 9 -5 42 -16 72 -26 167 -51 410 -186 611 -340 109 -84 172
-144 299 -284 164 -181 167 -183 282 -200 224 -34 351 -63 618 -140 85 -25
252 -94 292 -122 14 -10 29 -18 32 -18 6 0 56 -31 106 -65 8 -5 50 -47 95 -91
79 -80 155 -202 176 -279 4 -16 17 -57 29 -90 17 -50 36 -117 44 -160 1 -5 4
-14 8 -20 3 -5 9 -32 13 -60 4 -27 9 -61 11 -75 15 -101 25 -269 17 -300 -5
-19 -16 -20 -239 -20 l-234 0 -1 38 c-1 20 -1 40 -1 43 1 4 -3 22 -8 40 -5 18
-12 52 -15 76 -6 54 -39 142 -70 188 -14 20 -25 39 -25 43 0 4 -26 35 -57 70
-83 93 -193 170 -298 207 -27 9 -57 20 -65 23 -8 3 -18 4 -23 4 -4 -1 -28 3
-55 9 -132 29 -300 1 -452 -77 -215 -111 -363 -327 -386 -564 -3 -30 -10 -59
-15 -65 -6 -6 -174 -10 -442 -10 -393 -1 -435 -2 -465 -19 -76 -40 -76 -164 0
-198 28 -13 99 -15 478 -14 245 1 452 -1 461 -5 8 -4 24 -27 34 -51 45 -102
154 -239 235 -295 14 -9 31 -23 39 -30 20 -20 76 -47 161 -77 93 -34 260 -46
366 -26 147 27 277 93 374 190 47 47 171 218 182 251 2 7 101 11 293 12 275 2
292 4 330 24 64 34 110 85 125 138 14 49 17 224 5 331 -20 200 -104 524 -166
647 -35 67 -156 241 -196 279 -78 75 -231 180 -338 233 -148 73 -397 160 -512
180 -18 3 -43 9 -57 15 -15 5 -26 8 -26 5 0 -2 -15 1 -32 6 -18 5 -58 13 -88
19 -30 5 -64 11 -75 13 -20 5 -106 17 -154 23 -13 1 -34 14 -45 27 -163 189
-280 305 -396 393 -123 94 -253 184 -265 184 -5 0 -16 6 -24 14 -9 7 -45 28
-81 47 -36 18 -67 36 -70 39 -10 12 -221 102 -306 130 -88 30 -255 76 -305 85
-14 3 -61 12 -105 22 -71 15 -187 17 -1144 20 -994 3 -1094 5 -1180 28 -3 1
-23 6 -45 13 -22 6 -58 14 -80 17 -78 13 -101 17 -185 34 -47 10 -92 15 -100
13z m2512 -1340 c15 -15 25 -221 12 -250 -4 -9 -6 -21 -5 -26 7 -33 -122 -215
-154 -216 -5 -1 -28 -9 -50 -20 -46 -22 -142 -25 -190 -7 -39 16 -117 67 -133
89 -7 9 -19 23 -26 31 -8 7 -26 38 -42 68 -26 50 -27 63 -29 187 -1 133 -1
133 24 148 36 19 573 16 593 -4z m-1779 -902 c89 -23 175 -70 233 -127 54 -52
122 -158 139 -215 15 -52 23 -187 12 -205 -3 -5 -8 -24 -11 -44 -7 -46 -22
-85 -35 -94 -6 -3 -11 -15 -11 -26 0 -10 -4 -19 -9 -19 -5 0 -12 -8 -15 -17
-15 -45 -107 -123 -196 -165 -112 -53 -212 -63 -335 -32 -98 25 -215 110 -277
200 -27 38 -82 164 -72 164 3 0 -1 10 -7 22 -12 23 -15 120 -4 178 3 19 15 54
25 77 19 42 117 173 155 206 33 28 183 96 228 102 23 4 43 8 45 9 5 6 94 -4
135 -14z m3930 -8 c117 -33 267 -144 284 -210 6 -26 31 -72 44 -82 3 -3 14
-41 24 -85 16 -74 16 -132 1 -203 -9 -39 -74 -166 -98 -190 -101 -100 -158
-138 -249 -163 -79 -22 -205 -27 -223 -9 -5 5 -21 10 -35 10 -48 0 -144 55
-214 123 -122 119 -167 262 -138 434 12 66 39 133 67 163 8 8 29 35 47 60 30
41 115 104 177 131 93 40 215 48 313 21z"/>
<path d="M2708 4438 c-43 -36 -48 -57 -48 -215 0 -84 3 -154 8 -154 21 -4 159
-5 169 -1 9 3 12 47 12 165 l-1 160 -30 29 c-33 30 -82 38 -110 16z"/>
<path d="M3246 4428 c-25 -23 -26 -24 -27 -188 -1 -140 1 -165 15 -170 20 -7
140 -5 152 2 8 5 9 102 5 289 -2 76 -89 116 -145 67z"/>
</g>
</svg>
